# xmcd CD database file
#
# Track frame offsets:
#	150
#	14463
#	32906
#	47042
#	61742
#	72884
#	83791
#	95849
#	109444
#	120902
#	135257
#	152217
#	162639
#	171699
#	184044
#	195697
#	209590
#
# Disc length: 3027 seconds
#
# Revision: 0
# Processed by: cddbd v1.5.1PL2 Copyright (c) Steve Scherf et al.
# Submitted via: CDex 1.51
#
DISCID=f60bd111
DTITLE=Sarah Vaughan - Jazz and Blues Masters
DYEAR=1900
DGENRE=Jazz
TTITLE0=Summertime
TTITLE1=In a sentimental mood
TTITLE2=The more I see you
TTITLE3=Black coffee
TTITLE4=Perdido
TTITLE5=I cried for you
TTITLE6=Mean to me
TTITLE7=Thinking of you
TTITLE8=Polka dots and moonbeams
TTITLE9=Body and soul
TTITLE10=Sophisticated
TTITLE11=When your love has gone
TTITLE12=What is this thing called love
TTITLE13=Prelude to a kiss
TTITLE14=Whatever Lola wants
TTITLE15=It might aswell be spring
TTITLE16=When sunny gets blue
EXTD=
EXTT0=
EXTT1=
EXTT2=
EXTT3=
EXTT4=
EXTT5=
EXTT6=
EXTT7=
EXTT8=
EXTT9=
EXTT10=
EXTT11=
EXTT12=
EXTT13=
EXTT14=
EXTT15=
EXTT16=
PLAYORDER=
